<svg width="18" height="18" viewBox="0 0 18 18" fill="none" xmlns="http://www.w3.org/2000/svg">
<path fill-rule="evenodd" clip-rule="evenodd" d="M0.329911 0.32991C0.769793 -0.109971 1.48298 -0.10997 1.92286 0.329911L9.00001 7.40708L16.0771 0.329914C16.517 -0.109969 17.2302 -0.109972 17.6701 0.329908C18.11 0.769787 18.11 1.48297 17.6701 1.92286L10.593 9.00003L17.6701 16.0771C18.11 16.517 18.11 17.2302 17.6701 17.6701C17.2302 18.11 16.517 18.11 16.0771 17.6701L9.00001 10.593L1.92286 17.6701C1.48298 18.11 0.769788 18.11 0.329908 17.6701C-0.109971 17.2302 -0.109969 16.517 0.329913 16.0771L7.40706 9.00003L0.32991 1.92286C-0.109971 1.48298 -0.10997 0.76979 0.329911 0.32991Z" fill="#FFF"/>
</svg>