<svg width="282" height="208" viewBox="0 0 282 208" fill="none" xmlns="http://www.w3.org/2000/svg">
<g clip-path="url(#clip0_8_845)">
<path d="M57.7048 203.161L62.0541 203.16L64.123 186.415L57.704 186.416L57.7048 203.161Z" fill="#FFDED7"/>
<path d="M56.5956 201.743L57.8197 201.743L62.5989 199.803L65.1604 201.743C66.608 201.743 67.9966 202.317 69.0202 203.339C70.0438 204.36 70.6188 205.746 70.6189 207.191V207.368L56.5958 207.369L56.5956 201.743Z" fill="#2F2E41"/>
<path d="M77.9098 203.161L82.259 203.16L84.3279 186.415L77.9089 186.416L77.9098 203.161Z" fill="#FFDED7"/>
<path d="M76.8004 201.743L78.0245 201.743L82.8037 199.803L85.3653 201.743C86.8128 201.743 88.2014 202.317 89.225 203.339C90.2486 204.36 90.8237 205.746 90.8238 207.191V207.368L76.8007 207.369L76.8004 201.743Z" fill="#2F2E41"/>
<path d="M81.3862 111.523L47.2162 112.412L47.8104 129.022C47.8104 129.022 47.2162 133.471 48.4047 134.658C49.5932 135.844 50.1875 135.844 49.5932 137.92C48.999 139.997 52.1387 143.388 51.7574 143.768C51.376 144.149 50.4846 146.225 50.4846 146.225L53.4559 163.132C53.4559 163.132 55.5358 192.495 56.1301 193.089C56.7244 193.682 57.3186 193.089 56.7244 194.572C56.1301 196.055 55.5358 195.461 56.1301 196.055C56.6565 196.621 57.1524 197.215 57.6157 197.834H64.7995C64.7995 197.834 65.3411 194.868 65.3411 194.572C65.3411 194.275 65.9354 192.495 65.9354 192.199C65.9354 191.902 65.4101 191.378 65.4101 191.378C65.2286 190.775 65.106 190.156 65.044 189.529C65.044 188.936 63.2612 166.098 63.2612 166.098L66.8268 136.437L75.4436 165.505C75.4436 165.505 75.4436 191.012 76.0378 191.606C76.6321 192.199 76.6321 191.902 76.335 193.089C76.0378 194.275 74.8493 193.978 75.7407 194.868C76.6321 195.758 76.9292 194.275 76.6321 195.758L76.335 197.241L85.2489 197.368C85.2489 197.368 86.4374 194.868 85.8431 193.978C85.2489 193.089 85.2845 193.332 86.0095 191.875C86.7345 190.419 87.0316 190.123 86.7345 189.826C86.4374 189.529 86.4374 187.952 86.4374 187.952L84.9517 159.572C84.9517 159.572 84.6546 129.616 84.6546 128.726C84.6322 128.268 84.7167 127.811 84.9014 127.391V126.184L83.7632 121.904L81.3862 111.523Z" fill="#2F2E41"/>
<path d="M120.056 46.8327C119.892 47.2883 119.63 47.7024 119.288 48.0459C118.946 48.3894 118.533 48.6539 118.077 48.8208C117.622 48.9876 117.135 49.0528 116.652 49.0116C116.169 48.9705 115.7 48.8241 115.28 48.5827L100.447 60.987L99.6414 54.9238L114.149 43.8378C114.602 43.1596 115.288 42.6708 116.078 42.464C116.868 42.2573 117.707 42.347 118.435 42.7161C119.163 43.0853 119.73 43.7082 120.029 44.4669C120.328 45.2256 120.337 46.0674 120.056 46.8327Z" fill="#FFDED7"/>
<path d="M54.653 51.9521C59.7402 51.9521 63.8641 47.8355 63.8641 42.7574C63.8641 37.6793 59.7402 33.5627 54.653 33.5627C49.5659 33.5627 45.442 37.6793 45.442 42.7574C45.442 47.8355 49.5659 51.9521 54.653 51.9521Z" fill="#FFDED7"/>
<path d="M62.1204 33.6067C61.2629 31.5664 57.5879 30.3551 51.7726 30.5375C45.9574 30.72 44.939 37.6425 44.939 37.6425C41.7359 40.6226 46.9072 49.9272 47.8044 48.6443C48.7015 47.3615 50.2078 48.5741 50.2078 48.5741L48.7723 40.514C50.2883 41.0962 51.9186 41.4871 53.3445 40.8089L50.982 39.5478C52.94 39.791 54.898 40.0343 56.856 40.2775L54.4335 38.4172C54.4923 38.3978 54.551 38.3777 54.6098 38.3579C55.5812 38.7761 56.6216 39.0119 57.6787 39.0535C58.9137 39.0443 60.2262 38.4666 60.7438 37.3472C60.8814 37.0398 60.9559 36.708 60.9629 36.3714C62.6658 36.9233 63.5599 38.9146 63.5599 38.9146C63.2366 37.1067 62.755 35.3306 62.1204 33.6067Z" fill="#2F2E41"/>
<path d="M62.0261 52.3634C59.9691 52.3634 58.6444 52.6467 55.4438 53.1847C49.5361 54.1785 53.0741 59.7819 53.0741 59.7819C53.0741 59.7819 53.3415 59.6464 52.6175 59.7819C51.8934 59.9174 49.4251 62.0487 49.4251 62.0487L45.0108 65.9624C38.3585 71.1738 39.8478 79.305 39.8478 79.305L49.5485 89.0501L45.2988 108.602C45.2988 108.602 47.1048 111.505 46.1709 112.807C45.237 114.109 54.3988 113.735 54.3988 113.735C60.722 116.548 82.999 114.171 82.999 114.171C82.6905 113.366 79.7079 107.128 79.7079 107.128C81.0038 104.894 79.7696 101.666 79.7696 101.666C79.7696 101.666 78.4819 86.3971 77.6591 84.2863C76.8363 82.1755 79.7655 70.7385 81.6908 70.8617C83.6161 70.9849 96.0526 64.6524 96.0526 64.6524C96.0526 64.6524 95.74 64.1555 99.8457 62.4799C102.204 61.555 104.366 60.1937 106.218 58.4677L107.905 55.1044C107.094 55.4165 104.359 50.2667 104.359 50.2667L103.166 50.7207L102.474 50.5213C102.474 50.5213 97.0811 52.0531 95.9786 53.1701C94.876 54.2872 94.5058 53.975 93.5102 54.2256C92.5146 54.4761 92.3912 55.1742 92.0785 55.0962C91.7659 55.0181 91.2105 55.9627 90.7744 55.8395C90.3383 55.7163 89.4044 56.2132 88.7832 56.3364C88.162 56.4596 83.7478 58.324 83.7478 58.324C81.0161 56.9442 73.611 57.5027 73.611 57.5027C73.611 57.5027 71.1878 56.0777 70.5008 57.5027C70.316 57.9075 70.0192 58.2513 69.6453 58.4936C69.2714 58.7358 68.8361 58.8665 68.3903 58.8702L65.4365 57.6094C65.2649 58.235 62.043 51.715 62.0261 52.3634Z" fill="#FFA7A7"/>
<path d="M47.9236 128.884C47.601 128.523 47.3617 128.095 47.2227 127.631C47.0836 127.167 47.0481 126.678 47.1187 126.199C47.1893 125.72 47.3643 125.262 47.6313 124.858C47.8983 124.454 48.2509 124.113 48.6641 123.86L44.4792 107.438L50.2008 109.626L53.3806 125.133C53.7612 125.855 53.8636 126.69 53.6683 127.482C53.473 128.273 52.9936 128.966 52.321 129.428C51.6484 129.891 50.8292 130.091 50.0187 129.99C49.2083 129.89 48.4628 129.496 47.9236 128.884Z" fill="#FFDED7"/>
<path d="M40.2221 76.182L39.7053 82.7398C39.7053 82.7398 39.0629 89.9442 39.2311 91.2765C39.3993 92.6087 39.7125 100.744 39.7125 100.744L45.1588 111.499L51.3298 109.857L50.9605 104.811L51.3298 109.446L52.1526 105.339L50.0956 98.358L51.3298 95.894L50.7074 87.6227L40.2221 76.182Z" fill="#FFA7A7"/>
<path d="M186.326 60.8557L188.363 61.2915C188.376 60.4408 188.483 59.5941 188.68 58.7664C188.865 59.78 189.255 60.7453 189.827 61.6034L201.511 64.0942L212.73 52.2765C212.747 46.3676 209.46 41.8772 203.566 41.8772C203.211 41.8772 202.843 41.8943 202.47 41.9285C199.286 41.3965 196.019 42.1186 193.357 43.9427C190.696 45.7669 188.847 48.5507 188.2 51.7083C184.023 55.8141 185.538 58.2281 186.326 60.8557Z" fill="#2F2E41"/>
<path d="M180.581 199.06H176.343L174.327 182.74H180.582L180.581 199.06Z" fill="#FFDED7"/>
<path d="M182.477 207.093H179.47L178.933 204.259L177.558 207.093H169.581C169.199 207.093 168.826 206.971 168.518 206.745C168.21 206.519 167.983 206.2 167.869 205.836C167.755 205.472 167.761 205.08 167.886 204.72C168.011 204.359 168.248 204.047 168.562 203.83L174.932 199.439V196.573L181.632 196.973L182.477 207.093Z" fill="#2F2E41"/>
<path d="M230.236 194.454L226.55 196.542L216.728 183.342L222.169 180.26L230.236 194.454Z" fill="#FFDED7"/>
<path d="M235.857 200.508L233.241 201.989L231.373 199.788L231.578 202.931L224.64 206.86C224.308 207.049 223.924 207.126 223.544 207.081C223.164 207.036 222.809 206.871 222.53 206.61C222.251 206.349 222.063 206.006 221.993 205.631C221.923 205.256 221.975 204.868 222.141 204.524L225.51 197.567L224.094 195.075L230.119 192.121L235.857 200.508Z" fill="#2F2E41"/>
<path d="M164.914 63.7147C165.457 63.7932 165.977 63.9895 166.436 64.2899C166.895 64.5904 167.282 64.9876 167.57 65.4536C167.859 65.9196 168.041 66.4431 168.105 66.9871C168.169 67.5312 168.113 68.0826 167.94 68.6026L174.426 74.2063L171.975 78.9712L162.928 70.9293C162.072 70.5817 161.374 69.9329 160.965 69.1057C160.556 68.2785 160.466 67.3304 160.711 66.4412C160.956 65.5519 161.519 64.7832 162.294 64.2807C163.068 63.7782 164.001 63.5768 164.914 63.7147Z" fill="#FFDED7"/>
<path d="M170.521 81.1554L166.183 74.2664L171.006 69.344L174.432 73.5048L178.675 75.3947L184.499 78.9367C185.657 77.5761 194.58 67.3433 198.561 70.2897C199.039 70.615 199.441 71.0398 199.739 71.5348C200.037 72.0298 200.224 72.5833 200.288 73.1574C200.569 75.8967 198.109 78.6832 198.016 78.7863L192.756 85.8689C192.593 86.3138 190.853 90.9002 188.137 92.1339C187.751 92.3183 187.331 92.4206 186.904 92.4346C186.477 92.4485 186.051 92.3737 185.654 92.2149C178.458 89.4144 173.609 86.2555 171.446 82.9847C171.063 82.4154 170.752 81.8009 170.521 81.1554Z" fill="#2F2E41"/>
<path d="M186.572 95.5338C186.572 95.5338 174.11 115.349 176.368 117.603C178.625 119.857 182.139 120.449 182.139 120.449L189.914 110.391L186.572 95.5338Z" fill="#2F2E41"/>
<path d="M197.591 68.4706L191.717 72.4369C188.987 74.2804 186.934 76.9622 185.869 80.0758C184.803 83.1894 184.784 86.5648 185.814 89.6901L187.468 94.7073L197.591 68.4706Z" fill="#2F2E41"/>
<path d="M207.977 122.561L208.762 125.292L211.441 158.215L224.828 183.12L218.439 187.675L200.184 163.986L192.964 140.464L181.625 192.534L173.106 191.927L179.022 119.732L190.25 99.4105L207.977 122.561Z" fill="#2F2E41"/>
<path d="M198.59 69.468L190.415 76.137C188.621 77.6006 187.329 79.5866 186.719 81.8181C186.442 82.8313 186.311 83.8786 186.328 84.9287L186.572 99.4103L179.077 119.406C179.077 119.406 199.397 127.069 202.106 120.308C204.816 113.546 198.59 69.468 198.59 69.468Z" fill="#FFA7A7"/>
<path d="M187.205 113.546L185.85 108.137L186.181 94.6785C186.207 93.8965 190.383 81.7252 195.646 68.7968L200.173 64.2775L202.614 62.692L207.987 67.6425C207.987 67.6425 207.304 81.1931 207.525 95.0653C207.586 98.9033 206.91 103.386 206.622 106.785L209.09 117.734V123.829L208.93 123.861C208.77 123.894 206.296 123.817 196.145 123.817C187.734 123.817 193.333 117.865 187.205 113.546Z" fill="#2F2E41"/>
<path opacity="0.2" d="M205.709 79.7272L206.944 87.4161L198.589 90.8563L205.709 79.7272Z" fill="black"/>
<path d="M197.294 61.2496C201.811 61.2496 205.473 57.5941 205.473 53.0848C205.473 48.5755 201.811 44.9199 197.294 44.9199C192.777 44.9199 189.115 48.5755 189.115 53.0848C189.115 57.5941 192.777 61.2496 197.294 61.2496Z" fill="#FFDED7"/>
<path opacity="0.2" d="M210.999 94.5123C208.822 97.0285 205.869 98.7513 202.605 99.4099C199.34 100.069 195.949 99.6258 192.964 98.1512L191.184 97.2717L210.999 94.5123Z" fill="black"/>
<path d="M182.537 92.6328C182.902 92.2236 183.352 91.8992 183.856 91.6826C184.36 91.4659 184.906 91.3622 185.454 91.3787C186.003 91.3953 186.541 91.5316 187.031 91.7783C187.521 92.0249 187.951 92.3758 188.29 92.8062L196.549 90.4919L199.182 95.1586L187.473 98.2634C186.711 98.7847 185.784 99.0089 184.867 98.8934C183.95 98.7778 183.108 98.3307 182.5 97.6366C181.891 96.9426 181.559 96.0498 181.566 95.1276C181.573 94.2053 181.918 93.3177 182.537 92.6328Z" fill="#FFDED7"/>
<path d="M200.206 97.574L192.056 97.391L190.6 90.6607L195.966 90.1003L199.884 87.6072L206.054 84.7081C205.555 82.9938 201.918 69.9219 206.575 68.229C207.111 68.0101 207.687 67.9096 208.265 67.9341C208.843 67.9587 209.409 68.1079 209.924 68.3715C212.369 69.6468 213.343 73.231 213.377 73.3657L216.399 81.6499C216.681 82.0311 219.556 86.0084 219.091 88.9503C219.032 89.3732 218.887 89.7793 218.663 90.143C218.439 90.5067 218.142 90.82 217.79 91.063C211.484 95.514 206.171 97.8121 202.245 97.8117C201.558 97.8168 200.873 97.737 200.206 97.574Z" fill="#2F2E41"/>
<path d="M187.486 47.7134C188.14 48.5637 190.396 49.3156 193.075 49.9223C193.071 49.8668 193.071 49.8113 193.071 49.7557C193.084 48.905 193.191 48.0583 193.388 47.2306C193.573 48.2443 193.963 49.2096 194.535 50.0676C194.578 50.1317 194.62 50.1958 194.668 50.2599C196.966 50.7127 199.397 51.0631 201.302 51.2981C199.992 56.0064 194.971 59.8687 195.515 62.7313L210.226 65.7306C210.135 64.5411 210.231 63.3447 210.508 62.1844C210.79 63.7158 211.533 65.1246 212.64 66.2219L213.889 66.4783L214.262 64.6454C217.489 56.9079 212.991 48.9867 205.62 44.8893C204.306 42.9229 202.266 41.5558 199.945 41.0868L198.109 40.7108C196.951 40.4743 195.757 40.4678 194.596 40.6917C193.436 40.9156 192.331 41.3655 191.344 42.0158C190.358 42.666 189.509 43.5039 188.847 44.4815C188.185 45.4591 187.722 46.5573 187.486 47.7134Z" fill="#2F2E41"/>
<path d="M7.03086 197.156L6.83268 192.708C4.76669 191.606 2.46234 191.024 0.119751 191.012C3.34386 193.643 2.94094 198.715 5.1268 202.254C5.81702 203.352 6.746 204.281 7.84491 204.973C8.94382 205.664 10.1845 206.1 11.4749 206.247L14.173 207.896C14.5432 205.836 14.4616 203.72 13.9338 201.694C13.4059 199.669 12.4444 197.781 11.1155 196.162C10.3609 195.261 9.49573 194.459 8.54031 193.774C7.89412 195.474 7.03086 197.156 7.03086 197.156Z" fill="#F2F2F2"/>
<path d="M0.489884 208H281.219C281.349 208 281.473 207.948 281.564 207.856C281.656 207.765 281.707 207.64 281.707 207.511C281.707 207.382 281.656 207.257 281.564 207.166C281.473 207.074 281.349 207.022 281.219 207.022H0.489884C0.360216 207.022 0.235996 207.074 0.144439 207.166C0.0528821 207.257 0.00146484 207.382 0.00146484 207.511C0.00146484 207.64 0.0528821 207.765 0.144439 207.856C0.235996 207.948 0.360216 208 0.489884 208Z" fill="#CACACA"/>
<path d="M152.784 27.9475C153.802 32.4113 154.286 37.472 151.571 41.4666C150.417 43.1803 148.724 44.4609 146.759 45.1059C144.77 45.6946 142.672 45.8232 140.626 45.4819C135.996 44.8415 131.881 42.4339 127.327 41.4991C125.317 41.0866 123.184 40.9502 121.25 41.7441C119.8 42.339 118.273 43.5349 118.266 45.2409C118.259 46.9927 119.783 48.1554 121.299 48.694C123.322 49.4127 125.424 49.1345 127.522 49.0439C129.782 48.9464 132.086 49.1503 133.963 50.5317C135.577 51.7896 136.815 53.4652 137.543 55.3764C138.486 57.6623 138.869 60.1198 139.472 62.5047C140.012 64.6489 140.774 66.7308 141.748 68.7163C143.659 72.6079 146.338 76.0741 149.624 78.9068C151.244 80.299 153.214 81.7174 155.427 81.845C157.134 81.9434 159.209 81.2273 159.867 79.5013C160.112 78.7561 160.088 77.9491 159.799 77.2196C159.511 76.4901 158.977 75.884 158.289 75.5059C156.826 74.7689 155.232 75.8202 154.76 77.2631C154.636 77.5957 154.593 77.9529 154.634 78.3054C154.674 78.6579 154.798 78.9958 154.995 79.2914C155.438 79.9517 154.37 80.5691 153.929 79.9132C152.906 78.3904 153.441 76.3423 154.694 75.1225C155.305 74.5004 156.122 74.1216 156.993 74.0569C157.863 73.9921 158.728 74.2458 159.424 74.7705C160.148 75.3208 160.696 76.0702 160.999 76.9266C161.303 77.783 161.349 78.7092 161.133 79.5916C160.607 81.4874 158.74 82.6934 156.877 82.9921C154.575 83.3611 152.361 82.4582 150.503 81.1538C148.639 79.8108 146.944 78.2481 145.455 76.4997C142.429 73.0249 140.153 68.9636 138.772 64.5702C137.413 60.2249 137.314 54.4845 133.278 51.5499C131.201 50.0399 128.656 50.2073 126.22 50.3459C124.071 50.4683 121.974 50.4461 120.001 49.4746C118.373 48.6724 117.059 47.1917 117.032 45.3053C117.004 43.401 118.359 41.8697 119.955 41.0021C124.171 38.7101 129.234 40.5586 133.375 42.0898C137.54 43.6297 142.296 45.4371 146.722 43.8166C148.765 43.0241 150.41 41.4553 151.296 39.4542C152.368 37.1851 152.521 34.6105 152.273 32.148C152.127 30.8443 151.9 29.5508 151.594 28.275C151.418 27.5031 152.608 27.1735 152.784 27.9475Z" fill="#3F3D56"/>
<path d="M145.22 15.4254C146.44 19.493 148.28 23.3491 150.675 26.8583C151.267 27.7207 151.89 28.5612 152.542 29.3798C153.05 28.4594 153.664 27.602 154.373 26.8255C156.862 24.0946 160.198 22.3082 163.436 20.5177C166.674 18.7271 169.961 16.8052 172.248 13.9018C173.275 12.5948 174.01 11.0841 174.404 9.47072C174.922 7.28187 174.725 4.99856 173.445 3.1711C171.586 0.514085 167.879 -0.422237 164.728 0.345709C161.573 1.11366 158.931 3.30251 156.883 5.81579C157.553 2.72757 154.291 -0.253865 151.135 0.0171747C147.98 0.292321 145.45 3.04378 144.611 6.09093C143.767 9.13397 144.314 12.3947 145.22 15.4254Z" fill="#FFA7A7"/>
<g opacity="0.2">
<path d="M150.675 26.8583C151.267 27.7207 151.89 28.5612 152.542 29.3798C153.05 28.4594 153.664 27.602 154.373 26.8255C156.862 24.0945 160.199 22.3081 163.436 20.5176C166.674 18.7271 169.961 16.8052 172.248 13.9018C173.275 12.5948 174.01 11.0841 174.404 9.4707C167.126 10.4779 160.438 14.0196 155.521 19.4704C153.552 21.6833 151.92 24.1725 150.675 26.8583Z" fill="black"/>
</g>
</g>
<defs>
<clipPath id="clip0_8_845">
<rect width="281.709" height="208" fill="white"/>
</clipPath>
</defs>
</svg>
