<svg width="20" height="18" viewBox="0 0 20 18" fill="none" xmlns="http://www.w3.org/2000/svg">
<path fill-rule="evenodd" clip-rule="evenodd" d="M0 1.28571C0 0.575634 0.513772 0 1.14754 0H18.8525C19.4862 0 20 0.575634 20 1.28571C20 1.99579 19.4862 2.57143 18.8525 2.57143H1.14754C0.513772 2.57143 0 1.99579 0 1.28571Z" fill="#FFF"/>
<path fill-rule="evenodd" clip-rule="evenodd" d="M0 9C0 8.28992 0.513772 7.71429 1.14754 7.71429H18.8525C19.4862 7.71429 20 8.28992 20 9C20 9.71008 19.4862 10.2857 18.8525 10.2857H1.14754C0.513772 10.2857 0 9.71008 0 9Z" fill="#FFF"/>
<path fill-rule="evenodd" clip-rule="evenodd" d="M0 16.7143C0 16.0042 0.513772 15.4286 1.14754 15.4286H18.8525C19.4862 15.4286 20 16.0042 20 16.7143C20 17.4244 19.4862 18 18.8525 18H1.14754C0.513772 18 0 17.4244 0 16.7143Z" fill="#FFF"/>
</svg>
