<?xml version="1.0" encoding="utf-8"?>
<!-- Generator: Adobe Illustrator 26.0.0, SVG Export Plug-In . SVG Version: 6.00 Build 0)  -->
<svg version="1.1" id="레이어_1" xmlns="http://www.w3.org/2000/svg" xmlns:xlink="http://www.w3.org/1999/xlink" x="0px"
	 y="0px" viewBox="0 0 120 120" style="enable-background:new 0 0 120 120;" xml:space="preserve">
<style type="text/css">
	.st0{fill:white;}
</style>
<path d="M60,120c33.1,0,60-26.9,60-60S93.1,0,60,0S0,26.9,0,60S26.9,120,60,120z"/>
<path class="st0" d="M49.3,42c-1.7-1.7-1.7-4.6,0-6.4c0.9-0.9,2-1.3,3.2-1.3c1.1,0,2.3,0.4,3.2,1.3l21.2,21.2c1.7,1.7,1.7,4.6,0,6.4
	L55.6,84.4c-1.7,1.7-4.6,1.7-6.4,0c-1.7-1.7-1.7-4.6,0-6.4l18-18L49.3,42z"/>
</svg>
