<svg width="227" height="197" viewBox="0 0 227 197" fill="none" xmlns="http://www.w3.org/2000/svg">
<g clip-path="url(#clip0_3_61)">
<path d="M103.334 20.6981C101.486 18.7825 100.977 16.2766 102.197 15.1013C103.417 13.926 105.904 14.5263 107.752 16.4428C108.501 17.1983 109.058 18.122 109.377 19.1368L117.105 27.3522L113.847 30.3984L105.969 22.4196C104.966 22.0644 104.062 21.4741 103.334 20.6981Z" fill="#FFCEC7"/>
<path d="M111.692 21.8043L110.225 19.6825L105.753 23.0828L108.185 24.2979L111.692 21.8043Z" fill="#6C63FF"/>
<path d="M154.59 49.0992L152.324 37.1606L129.942 35.0447L111.303 20.69L106.826 23.8471L122.263 45.6044L154.59 49.0992Z" fill="#2F2E41"/>
<path d="M139.861 29.6899C138.409 29.0483 136.414 30.377 135.406 32.6576C134.99 33.5637 134.798 34.5561 134.844 35.5517L133.662 38.3121L133.642 38.3146L128.212 47.7192L120.442 36.3731C119.253 34.6375 117.076 33.8716 115.062 34.48C111.763 35.4764 110.542 39.5076 112.733 42.1656L125.567 57.7294C126.913 59.3619 129.501 59.0395 130.405 57.1267L137.974 39.3695L138.9 37.3435C139.668 36.708 140.273 35.898 140.663 34.9812C141.672 32.6999 141.313 30.3314 139.861 29.6899Z" fill="#FFCEC7"/>
<path d="M227 187.87C227 188.155 226.771 188.384 226.485 188.384H0.514857C0.229319 188.384 0 188.155 0 187.87C0 187.584 0.229319 187.355 0.514857 187.355H226.485C226.771 187.355 227 187.584 227 187.87Z" fill="#3F3D56"/>
<path d="M140.39 30.5718L140.616 21.2819L146.025 18.3073L150.475 25.2231L140.39 30.5718Z" fill="#FFCEC7"/>
<path d="M150.898 24.2378L138.793 29.7272L138.222 36.9058L152.869 29.0235L150.898 24.2378Z" fill="#6C63FF"/>
<path d="M157.176 56.306L157.172 56.3233C156.294 61.5682 155.121 65.3388 155.121 65.3388L155.485 73.7186L156.251 91.2394L151.487 91.6588L143.98 92.3161L143.254 92.3809L138.278 92.8176L130.616 93.4878L128.362 60.8332C128.362 60.8332 131.152 53.6727 133.817 46.8537C135.617 42.253 137.361 37.8037 138.144 35.8189C138.222 35.6244 138.291 35.4557 138.347 35.313C139.26 33.0213 143.807 30.1762 147.329 28.2563C149.722 26.9462 151.647 26.0597 151.647 26.0597L153.568 29.5967L153.715 29.8691C156.597 33.3802 157.778 38.2663 158.05 43.2908C158.072 43.654 158.085 44.0172 158.098 44.3804C158.223 48.5574 157.765 52.7689 157.176 56.306Z" fill="#2F2E41"/>
<path d="M144.225 184.909L139.189 184.862L136.975 165.426L144.407 165.496L144.225 184.909Z" fill="#FFCEC7"/>
<path d="M126.973 184.635C126.813 184.897 126.723 185.748 126.72 186.055C126.711 186.998 127.469 187.77 128.413 187.779L144.009 187.924C144.653 187.93 145.18 187.413 145.186 186.77L145.192 186.121C145.192 186.121 145.982 184.178 144.416 181.759C144.416 181.759 142.424 183.623 139.501 180.647L138.646 179.064L132.306 183.608L128.812 184.005C128.048 184.092 127.372 183.977 126.973 184.635Z" fill="#2F2E41"/>
<path d="M170.004 178.711L165.431 180.82L155.117 164.195L161.867 161.083L170.004 178.711Z" fill="#FFCEC7"/>
<path d="M154.289 185.833C154.257 186.138 154.539 186.946 154.668 187.225C155.063 188.081 156.079 188.455 156.936 188.06L171.098 181.53C171.683 181.26 171.938 180.568 171.668 179.983L171.396 179.394C171.396 179.394 171.279 177.3 168.829 175.782C168.829 175.782 167.825 178.318 163.911 176.876L162.461 175.81L158.672 182.626L155.683 184.478C155.029 184.883 154.368 185.068 154.289 185.833Z" fill="#2F2E41"/>
<path d="M131.937 89.7653L132.454 133.455L136.745 179.07H144.702L151.179 119.42C151.179 119.42 160.542 104.994 155.08 92.1286V85.7478L131.937 89.7653Z" fill="#2F2E41"/>
<path d="M145.328 131.116L167.563 170.493L161.322 176.731L143.767 151.389L145.328 131.116Z" fill="#2F2E41"/>
<path d="M121.744 32.8239L112.73 29.7272C112.73 29.7272 105.125 38.7356 109.069 49.7145L110.195 62.9455C110.195 62.9455 94.7031 75.895 93.5764 92.5041C92.4497 109.113 55.8317 153.029 55.8317 153.029C55.8317 153.029 42.3113 153.873 41.4662 158.941C40.6212 164.008 46.2547 170.483 45.128 176.113C44.0013 181.743 53.1946 198.071 72.6813 196.945C92.168 195.818 152.447 184.84 153.292 172.172C154.137 159.504 123.152 65.1976 123.152 65.1976L127.659 52.5296C127.659 52.5296 130.758 47.4624 126.251 42.1137C121.744 36.765 121.744 32.8239 121.744 32.8239Z" fill="#E6E6E6"/>
<path d="M112.296 30.292L112.524 29.7272L114.139 24.3785L122.307 27.1936L121.744 32.8239L112.296 30.292Z" fill="#FFCEC7"/>
<path d="M142.919 24.5208C148.391 24.5208 152.827 20.0878 152.827 14.6194C152.827 9.15098 148.391 4.71797 142.919 4.71797C137.448 4.71797 133.012 9.15098 133.012 14.6194C133.012 20.0878 137.448 24.5208 142.919 24.5208Z" fill="#FFCEC7"/>
<path d="M141.473 18.8644L137.305 14.8183L138.459 11.6716C138.459 11.6716 130.222 14.7276 132.266 8.29076C134.309 1.85395 144.737 2.50376 146.896 4.07426C149.056 5.64476 156.054 9.28089 154.258 14.3793C152.462 19.4777 149.056 24.0654 149.056 24.0654L146.362 22.5027C146.362 22.5027 146.277 16.6306 144.946 16.9169C143.614 17.2032 141.473 18.8644 141.473 18.8644Z" fill="#2F2E41"/>
<path d="M121.979 28.3865C127.029 28.3865 131.122 24.2956 131.122 19.2492C131.122 14.2029 127.029 10.112 121.979 10.112C116.93 10.112 112.837 14.2029 112.837 19.2492C112.837 24.2956 116.93 28.3865 121.979 28.3865Z" fill="#FFCEC7"/>
<path d="M121.25 6.96488C121.514 7.11922 121.869 6.8857 121.953 6.59153C122.038 6.29736 121.939 5.98502 121.841 5.69497L121.348 4.23476C120.998 3.19916 120.627 2.12736 119.869 1.33913C118.726 0.149421 116.908 -0.153236 115.272 0.0660284C113.171 0.347606 111.098 1.48464 110.121 3.36488C109.144 5.24512 109.56 7.86873 111.325 9.04181C108.809 11.9237 107.932 15.1355 108.071 18.9576C108.209 22.7797 112.377 26.2973 115.095 28.9898C115.702 28.6221 116.254 26.8989 115.92 26.2729C115.586 25.6469 116.064 24.9217 115.651 24.345C115.238 23.7684 114.892 24.6866 115.31 24.1132C115.573 23.7514 114.544 22.9191 114.936 22.7026C116.832 21.6552 117.463 19.2935 118.653 17.4849C120.09 15.3034 122.548 13.8261 125.149 13.581C126.582 13.446 128.096 13.6905 129.27 14.522C130.445 15.3534 131.205 16.8392 130.933 18.2517C131.638 17.5359 131.989 16.4869 131.857 15.4909C131.724 14.495 131.111 13.5741 130.243 13.0672C130.771 11.3229 130.319 9.31647 129.094 7.96668C127.869 6.61689 122.9 6.84678 121.111 7.20202" fill="#2F2E41"/>
<path d="M120.972 13.634C118.603 13.8895 116.893 15.9401 115.449 17.8338C114.616 18.9253 113.745 20.1307 113.765 21.5029C113.787 22.8902 114.715 24.0802 115.158 25.395C115.883 27.544 115.177 30.1009 113.451 31.5734C115.156 31.8968 117 30.6189 117.294 28.9093C117.637 26.919 116.127 24.9981 116.306 22.9866C116.464 21.2144 117.861 19.8504 119.049 18.5253C120.237 17.2003 121.353 15.4419 120.806 13.7486" fill="#2F2E41"/>
<path d="M210.487 141.306C209.12 141.453 207.628 141.674 206.041 141.997C199.312 143.366 199.172 147.933 199.231 148.98L199.186 148.951C198.509 150.036 198.085 151.134 197.829 152.17L197.521 138.174C197.72 137.759 197.902 137.288 198.053 136.806C198.556 138.356 199.382 139.821 200.094 139.724C201.019 139.597 201.423 136.876 201.25 134.942C202.427 136.456 204.408 138.076 205.155 137.577C205.752 137.178 205.398 135.534 204.746 134.04C206.104 134.858 207.609 135.396 208.075 134.877C208.712 134.168 207.186 131.75 205.778 130.4C207.663 130.576 210.059 130.276 210.216 129.419C210.345 128.713 208.919 127.822 207.393 127.248C208.926 126.844 210.36 126.14 210.312 125.444C210.256 124.616 208.127 124.062 206.291 123.977C207.676 122.894 208.949 121.397 208.559 120.72C208.201 120.098 206.537 120.339 205.001 120.887C205.91 119.589 206.549 118.125 206.062 117.624C205.456 117.001 203.305 118.077 201.837 119.267C202.122 117.413 201.978 115.073 201.146 114.861C200.45 114.684 199.463 116.045 198.787 117.529C198.488 115.972 197.883 114.495 197.184 114.495C196.189 114.495 195.382 117.493 195.382 119.446C195.382 119.557 195.385 119.661 195.39 119.76C195.291 119.644 195.176 119.523 195.046 119.397C193.643 118.036 190.929 116.525 190.236 117.239C189.749 117.739 190.388 119.203 191.297 120.501C189.762 119.953 188.097 119.712 187.739 120.334C187.258 121.171 189.313 123.259 190.984 124.271C190.884 124.259 190.778 124.249 190.666 124.241C188.716 124.108 185.668 124.709 185.6 125.701C185.553 126.397 186.986 127.101 188.52 127.505C186.993 128.079 185.567 128.97 185.696 129.676C185.853 130.533 188.25 130.833 190.134 130.657C188.726 132.007 187.2 134.425 187.837 135.134C188.304 135.653 189.808 135.116 191.166 134.298C190.514 135.792 190.16 137.435 190.757 137.834C191.547 138.362 193.711 136.526 194.851 134.946C194.735 136.879 195.198 139.534 196.116 139.639C196.5 139.682 196.907 139.273 197.274 138.643L196.234 153.686C195.991 155.438 197.546 156.581 197.685 157.303L197.909 167.49C197.656 166.764 197.315 166.022 196.855 165.285L196.81 165.313C196.869 164.266 196.729 159.7 190 158.331C188.413 158.008 186.921 157.787 185.554 157.64C183.939 157.467 183.31 159.675 184.768 160.388C186.88 161.422 188.867 162.723 189.902 164.264C192.55 168.205 196.208 165.927 196.728 165.574C197.309 166.54 197.689 167.514 197.93 168.44L198.049 173.85C198.02 173.978 198 174.05 197.998 174.055L198.054 174.071L198.342 187.164L201.016 187.142L200.06 173.76C200.221 173.038 200.715 170.579 200.06 168.025L199.103 157.51C199.101 157.502 199.158 157.786 199.103 157.51L197.856 153.378C198.037 152.1 198.458 150.662 199.313 149.24C199.833 149.593 203.491 151.871 206.139 147.931C207.174 146.389 209.161 145.088 211.273 144.055C212.731 143.341 212.102 141.133 210.487 141.306ZM198.272 172.283L198.222 169.993C198.323 170.859 198.318 171.64 198.272 172.283Z" fill="#F2F2F2"/>
<path d="M33.5323 141.306C32.1647 141.453 30.6728 141.674 29.0858 141.997C22.357 143.366 22.2174 147.933 22.2763 148.98L22.2306 148.951C21.554 150.036 21.1303 151.134 20.8742 152.17L20.566 138.174C20.7653 137.759 20.9466 137.288 21.0977 136.806C21.6014 138.356 22.4271 139.821 23.1388 139.724C24.0643 139.597 24.4678 136.876 24.2951 134.942C25.472 136.456 27.4527 138.076 28.1999 137.577C28.7969 137.178 28.4429 135.534 27.791 134.04C29.1493 134.858 30.6535 135.396 31.1203 134.877C31.7573 134.168 30.231 131.75 28.8233 130.4C30.7075 130.576 33.1039 130.276 33.261 129.419C33.3904 128.713 31.9642 127.822 30.4377 127.248C31.971 126.844 33.4048 126.14 33.3573 125.444C33.3008 124.616 31.1721 124.062 29.3356 123.977C30.7208 122.894 31.9935 121.397 31.6043 120.72C31.2465 120.098 29.5819 120.339 28.0461 120.887C28.955 119.589 29.594 118.125 29.1073 117.624C28.5012 117.001 26.3498 118.077 24.8816 119.267C25.1674 117.413 25.0229 115.073 24.1908 114.861C23.4947 114.684 22.5081 116.045 21.8317 117.529C21.5327 115.972 20.9275 114.495 20.229 114.495C19.234 114.495 18.4274 117.493 18.4274 119.446C18.4274 119.557 18.4303 119.661 18.4354 119.76C18.3355 119.644 18.221 119.523 18.0905 119.397C16.6884 118.036 13.9743 116.525 13.2811 117.239C12.7945 117.739 13.4334 119.203 14.3423 120.501C12.8065 119.953 11.1419 119.712 10.7841 120.334C10.3033 121.171 12.3585 123.259 14.029 124.271C13.9285 124.259 13.823 124.249 13.7108 124.241C11.7608 124.108 8.71282 124.709 8.64508 125.701C8.59753 126.397 10.0313 127.101 11.5646 127.505C10.0381 128.079 8.61189 128.97 8.74134 129.676C8.89845 130.533 11.2948 130.833 13.179 130.657C11.7714 132.007 10.245 134.425 10.882 135.134C11.3488 135.653 12.8531 135.116 14.2113 134.298C13.5594 135.792 13.2054 137.435 13.8025 137.834C14.5915 138.362 16.7555 136.526 17.8964 134.946C17.7802 136.879 18.2429 139.534 19.161 139.639C19.545 139.682 19.9518 139.273 20.319 138.643L19.2791 153.686C19.036 155.438 20.5909 156.581 20.7298 157.303L20.9541 167.49C20.701 166.764 20.36 166.022 19.9004 165.285L19.8547 165.313C19.9137 164.266 19.7739 159.7 13.0452 158.331C11.4582 158.008 9.96632 157.787 8.59873 157.64C6.98444 157.467 6.35474 159.675 7.81306 160.388C9.92503 161.422 11.9117 162.723 12.9472 164.264C15.5946 168.205 19.2526 165.927 19.7726 165.574C20.3536 166.54 20.7345 167.514 20.975 168.44L21.0942 173.85C21.065 173.978 21.0448 174.05 21.0432 174.055L21.099 174.071L21.3873 187.164L24.0613 187.142L23.1049 173.76C23.2656 173.038 23.7601 170.579 23.1049 168.025L22.1484 157.51C22.146 157.502 22.2027 157.786 22.1484 157.51L20.9008 153.378C21.0822 152.1 21.5032 150.662 22.3584 149.24C22.8784 149.593 26.5364 151.871 29.1838 147.931C30.2193 146.389 32.206 145.088 34.318 144.055C35.7763 143.341 35.1466 141.133 33.5323 141.306ZM21.317 172.283L21.2666 169.993C21.3683 170.859 21.3631 171.64 21.317 172.283Z" fill="#F2F2F2"/>
<path d="M110.151 63.5409L123.396 63.4982C124.231 63.4955 124.233 62.1983 123.396 62.201L110.151 62.2438C109.316 62.2464 109.314 63.5436 110.151 63.5409Z" fill="#6C63FF"/>
<path d="M146.293 89.7589C145.547 88.8316 144.589 88.0966 143.5 87.6153L142.777 86.7633L142.813 86.7283L128.77 63.567L121.159 40.9478C120.278 38.3306 117.403 36.9627 114.815 37.9292C112.226 38.896 110.954 41.8142 112.008 44.3676L120.902 65.9126L138.983 90.4474L139.42 90.9891C139.689 92.1481 140.232 93.2258 141.004 94.132C142.904 96.4267 145.627 97.307 147.088 96.0991C148.549 94.8912 148.193 92.0525 146.293 89.7589Z" fill="#FFCEC7"/>
<path d="M151.448 94.6691C150.848 98.0027 148.64 100.395 146.517 100.013C144.395 99.631 143.161 96.6191 143.762 93.2844C143.984 91.949 144.522 90.6861 145.333 89.6014L148.055 75.5088L153.628 76.5987L151.261 90.6687C151.642 91.9681 151.706 93.3399 151.448 94.6691Z" fill="#FFCEC7"/>
<path d="M146.361 85.2256L145.264 88.3203L152.108 90.398L151.55 86.9842L146.361 85.2256Z" fill="#6C63FF"/>
<path d="M158.098 44.3804L157.773 50.1313L157.176 56.306L157.172 56.3233L155.485 73.7186L154.208 86.9068L153.966 89.3757L151.863 88.9044L151.569 88.8396L149.428 88.3596L145.733 87.5251L145.56 87.4905L144.82 87.3218L146.702 56.4357L146.996 43.1567L147.256 31.508L147.329 28.2563C149.722 26.9462 151.647 26.0597 151.647 26.0597L153.568 29.5967L153.715 29.8691C156.597 33.3802 157.778 38.2663 158.05 43.2908C158.072 43.654 158.085 44.0172 158.098 44.3804Z" fill="#2F2E41"/>
</g>
<defs>
<clipPath id="clip0_3_61">
<rect width="227" height="197" fill="white"/>
</clipPath>
</defs>
</svg>
